<svg width="20" height="20" viewBox="0 0 20 20" fill="none" xmlns="http://www.w3.org/2000/svg">
<path d="M18.3334 4.4444H14.1666V3.51847C14.1666 2.78175 13.8374 2.07522 13.2514 1.55429C12.6654 1.03335 11.8705 0.740692 11.0417 0.740692H8.95834C8.12954 0.740692 7.33467 1.03335 6.74862 1.55429C6.16258 2.07522 5.83334 2.78175 5.83334 3.51847V4.4444H1.66666C1.3904 4.4444 1.12545 4.54195 0.930097 4.7156C0.734746 4.88924 0.625 5.12475 0.625 5.37032C0.625 5.6159 0.734746 5.85141 0.930097 6.02505C1.12545 6.1987 1.3904 6.29625 1.66666 6.29625H2.70834V16.4814C2.70834 17.2181 3.03758 17.9247 3.62363 18.4457C4.20968 18.9666 5.00454 19.2592 5.83334 19.2592H14.1666C14.9955 19.2592 15.7904 18.9666 16.3764 18.4457C16.9624 17.9247 17.2916 17.2181 17.2916 16.4814V6.29625H18.3334C18.6096 6.29625 18.8745 6.1987 19.0699 6.02505C19.2653 5.85141 19.375 5.6159 19.375 5.37032C19.375 5.12475 19.2653 4.88924 19.0699 4.7156C18.8745 4.54195 18.6096 4.4444 18.3334 4.4444ZM7.91666 3.51847C7.91666 3.2729 8.02641 3.03739 8.22176 2.86374C8.41711 2.6901 8.68206 2.59254 8.95834 2.59254H11.0417C11.3179 2.59254 11.5829 2.6901 11.7782 2.86374C11.9736 3.03739 12.0833 3.2729 12.0833 3.51847V4.4444H7.91666V3.51847ZM15.2084 16.4814C15.2084 16.727 15.0986 16.9626 14.9032 17.1361C14.7079 17.3098 14.4429 17.4073 14.1666 17.4073H5.83334C5.55706 17.4073 5.29211 17.3098 5.09676 17.1361C4.90141 16.9626 4.79166 16.727 4.79166 16.4814V6.29625H15.2084V16.4814Z" fill="white"/>
</svg>
